<svg width="96" height="96" viewBox="0 0 96 96" fill="none" xmlns="http://www.w3.org/2000/svg">
<path fill-rule="evenodd" clip-rule="evenodd" d="M48.5 21C36.3696 21 28.7863 27 25.75 39C30.302 33.0025 35.6093 30.7528 41.672 32.2509C45.1379 33.1056 47.5965 35.5886 50.3514 38.3369C54.7948 42.8166 59.9787 47.9963 71.25 47.9963C83.3804 47.9963 90.9637 41.9963 94 29.9963C89.453 35.9988 84.1456 38.2485 78.078 36.7454C74.6121 35.8907 72.1535 33.4077 69.3986 30.6594C64.9404 26.1576 59.7787 21 48.5 21ZM25.75 47.9963C13.6196 47.9963 6.0363 53.9963 3 65.9963C7.55691 59.9988 12.8643 57.7491 18.922 59.2472C22.3879 60.1019 24.8465 62.5849 27.6014 65.3406C32.0448 69.8129 37.2287 75 48.5 75C60.6304 75 68.2137 69 71.25 57C66.703 62.9975 61.3956 65.2423 55.328 63.7343C51.8621 62.8797 49.4035 60.3966 46.6486 57.6484C42.2052 53.1686 37.0213 47.9816 25.75 47.9816V47.9963Z" fill="#06B6D4"/>
</svg>
